<?xml version="1.0" encoding="UTF-8" standalone="no"?>
<!-- Created with Inkscape (http://www.inkscape.org/) -->

<svg
   width="830"
   height="270"
   viewBox="0 0 830 270"
   version="1.1"
   sodipodi:docname="logo-dark-830x270.svg"
   inkscape:version="1.1.2 (b8e25be8, 2022-02-05)"
   id="svg16589"
   xmlns:inkscape="http://www.inkscape.org/namespaces/inkscape"
   xmlns:sodipodi="http://sodipodi.sourceforge.net/DTD/sodipodi-0.dtd"
   xmlns="http://www.w3.org/2000/svg"
   xmlns:svg="http://www.w3.org/2000/svg">
  <sodipodi:namedview
     pagecolor="#ffffff"
     bordercolor="#999999"
     borderopacity="1"
     inkscape:pageshadow="0"
     inkscape:pageopacity="0"
     inkscape:pagecheckerboard="0"
     inkscape:document-units="px"
     showgrid="false"
     units="px"
     inkscape:zoom="0.60323234"
     inkscape:cx="249.48928"
     inkscape:cy="393.71231"
     inkscape:window-width="1677"
     inkscape:window-height="1051"
     inkscape:window-x="51"
     inkscape:window-y="38"
     inkscape:window-maximized="1"
     inkscape:current-layer="logo"
     height="500px"
     id="namedview16573" />
  <defs
     id="defs16575" />
  <g
     inkscape:label="photo-cli-logo"
     inkscape:groupmode="layer"
     id="logo"
     style="display:inline">
    <path
       id="pink1"
       style="fill:#fa9a9b;fill-opacity:1;stroke:none;stroke-width:0.45"
       d="m 108.21959,96.654739 c -3.2454,0.50625 -6.56865,2.33593 -9.449997,3.882131 -7.1901,3.8583 -17.35016,9.35237 -20.72021,17.26787 -5.23575,12.29895 1.83551,34.2792 15.77021,37.8 0.0374,-13.5279 3.65118,-27.25785 7.729977,-40.05 1.9368,-6.07365 6.02247,-12.573 6.67002,-18.900001 z" />
    <path
       style="fill:#fa9a9b;fill-opacity:1;stroke:none;stroke-width:0.45"
       d="m 90.990393,79.780619 c -2.15541,0.004 -4.23985,0.24673 -6.1708,0.81035 -12.8619,3.75435 -23.86755,23.474371 -18.45,36.313771 5.8923,-2.26665 11.1492,-7.63588 16.65,-10.86328 11.7234,-6.877801 25.112247,-12.993471 38.249997,-16.586721 -2.61225,-3.04695 -7.5861,-4.10326 -11.25,-5.48701 -5.46379,-2.06348 -12.562967,-4.19926 -19.029197,-4.18711 z"
       id="pink2" />
    <path
       id="red1"
       style="fill:#f53737;fill-opacity:1;stroke:none;stroke-width:0.45"
       d="m 106.34664,58.442529 c -6.952367,-0.14862 -14.101937,1.98714 -19.727047,5.82451 -1.9647,1.3401 -6.33962,3.96141 -6.41162,6.67266 -0.0414,1.5525 2.16677,1.71968 3.26162,1.95908 3.47265,0.75916 6.95655,1.70094 10.35,2.75889 9.641247,3.006 19.007547,6.87634 27.899997,11.68594 4.671,2.5263 10.08765,6.95583 15.3,7.96113 -1.7577,-13.6116 -9.6723,-32.21761 -23.85,-35.93057 -2.20984,-0.57876 -4.50549,-0.88209 -6.82295,-0.93164 z" />
    <path
       style="fill:#f53737;fill-opacity:1;stroke:none;stroke-width:0.45"
       d="m 127.47203,52.514309 c -1.34321,0.025 -2.6658,0.1841 -3.95244,0.49043 2.05155,7.1217 6.61934,13.65345 9.13799,20.7 4.41585,12.3543 6.82261,24.9642 9.31201,37.800001 4.23675,-2.0655 6.99743,-8.5572 9.09668,-12.600001 3.32055,-6.3945 7.15969,-14.65245 6.06709,-22.05 -1.82047,-12.32532 -16.67695,-24.58255 -29.66133,-24.34043 z"
       id="red2" />
    <path
       style="fill:#f53737;fill-opacity:1;stroke:none;stroke-width:0.45"
       d="m 165.62623,75.907279 c -1.2048,0.0617 -1.68581,1.83874 -2.05664,2.74746 -1.3617,3.3354 -2.79669,6.66765 -4.39014,9.9 -4.3164,8.75655 -9.78679,17.001451 -15.70429,24.750001 -3.36285,4.40325 -7.96802,8.58285 -10.50557,13.5 12.67335,0 32.14751,-2.079 38.53301,-14.85 4.35105,-8.70255 4.396,-19.560601 0.26455,-28.350001 -1.02735,-2.1861 -3.13375,-7.30849 -5.88955,-7.68604 -0.0869,-0.0119 -0.17105,-0.0155 -0.25137,-0.0114 z"
       id="red3" />
    <path
       id="red4"
       style="fill:#f53737;fill-opacity:1;stroke:none;stroke-width:0.45"
       d="m 176.61959,125.00474 c -19.36845,5.88555 -41.54175,3.3867 -61.2,0.9 1.04355,4.44015 5.4189,8.15404 8.55,11.24824 9.7281,9.6129 20.9601,16.82748 34.65,10.66113 6.7338,-3.033 12.22466,-7.88242 15.99521,-14.25937 1.40355,-2.3733 3.14104,-5.81625 2.00479,-8.55 z" />
    <path
       id="outer-ring"
       style="fill:#7f201e;fill-opacity:1;stroke:none;stroke-width:0.45"
       d="m 126.5773,17.220069 c -2.54441,-0.0258 -5.07247,0.0736 -7.55771,0.31026 -12.9735,1.2355 -24.907047,4.5307 -36.449997,10.62509 -12.45645,6.5768 -23.24497,16.50123 -31.30312,27.99932 -9.87089,14.085 -14.95441,30.7962 -16.97608,47.700001 -2.3638,19.76445 8.02248,40.6953 17.94902,57.15 15.264,25.30215 36.05352,47.8287 55.201467,70.2 4.2615,4.97925 8.68922,9.8244 12.89267,14.85 1.19385,1.42785 3.31291,4.85684 5.41846,4.85684 2.25765,0 5.29766,-5.08184 6.64541,-6.65684 5.0004,-5.84235 9.94972,-11.72745 14.97217,-17.55 1.4184,-1.6443 5.37239,-4.85772 5.31299,-7.18242 -0.0549,-2.13615 -4.30859,-4.52793 -5.76299,-5.86758 h -0.45 c -5.2866,5.5278 -9.25065,13.84924 -17.1,16.17979 -7.12395,2.11545 -13.22955,-2.41654 -18,-7.17979 -10.0161,-10.00035 -19.118267,-21.53565 -27.617867,-32.85 -10.87785,-14.47965 -23.60851,-28.8846 -31.19326,-45.45 -10.52046,-22.9761 -10.91166,-52.987951 4.57558,-73.800001 6.12945,-8.2368 15.2498,-14.45069 24.08555,-19.47656 24.521397,-13.94771 53.707047,-17.04513 79.649997,-5.13457 12.31245,5.65276 25.42721,14.73228 33.20771,25.96113 13.9617,20.14965 15.78676,52.698601 2.76241,73.800001 -2.7423,4.4433 -6.04827,8.55009 -9.87012,12.10869 -2.7198,2.53305 -5.7321,4.86598 -9,6.65068 -17.0613,9.31455 -30.69225,-2.72889 -43.2,-13.73994 -11.65005,-10.25595 -22.87665,-21.41338 -31.05,-34.71943 -3.10995,4.5522 -1.8,15.2874 -1.8,20.7 0,10.09485 -0.38624,21.24992 6.15586,29.69912 4.788,6.18435 13.10909,9.42032 20.39414,11.56817 16.39395,4.833 38.5929,12.98034 54,1.58994 8.748,-6.46695 14.191,-16.59433 19.6207,-25.75723 21.50775,-36.29385 15.7538,-85.176261 -16.0207,-113.773541 -10.24965,-9.22468 -23.69655,-15.74732 -36.9,-19.48974 -7.182,-2.03571 -14.95903,-3.244 -22.59229,-3.32139 z" />
    <text
       xml:space="preserve"
       style="font-style:normal;font-variant:normal;font-weight:bold;font-stretch:normal;font-size:93.3333px;line-height:1.25;font-family:sans-serif;-inkscape-font-specification:'sans-serif Bold';fill:#f53737;fill-opacity:1;stroke:none"
       x="281.41928"
       y="152.5117"
       id="header"><tspan
         sodipodi:role="line"
         id="tspan651"
         x="281.41928"
         y="152.5117"
         style="font-style:normal;font-variant:normal;font-weight:bold;font-stretch:normal;font-size:93.3333px;font-family:sans-serif;-inkscape-font-specification:'sans-serif Bold';fill:#f53737;fill-opacity:1">photo-cli</tspan></text>
    <text
       xml:space="preserve"
       style="font-style:italic;font-variant:normal;font-weight:normal;font-stretch:normal;font-size:21.3333px;line-height:1.25;font-family:sans-serif;-inkscape-font-specification:'sans-serif Italic';fill:#fa9a9b;fill-opacity:1;stroke:none"
       x="311.65439"
       y="198.92833"
       id="subheader"><tspan
         sodipodi:role="line"
         id="tspan2355"
         x="311.65439"
         y="198.92833"
         style="font-size:21.3333px;fill:#fa9a9b;fill-opacity:1">A photo organizer for your file system</tspan></text>
  </g>
</svg>
