<?xml version="1.0" encoding="UTF-8" standalone="no"?>
<svg font-family="sans-serif" viewBox="0 0 830 270" version="1.1" id="svg29" sodipodi:docname="logo-banner-mobile.svg" inkscape:version="1.1.2 (b8e25be8, 2022-02-05)" xmlns:inkscape="http://www.inkscape.org/namespaces/inkscape" xmlns:sodipodi="http://sodipodi.sourceforge.net/DTD/sodipodi-0.dtd" xmlns="http://www.w3.org/2000/svg" xmlns:svg="http://www.w3.org/2000/svg">
  <defs id="defs33" />
  <sodipodi:namedview id="namedview31" pagecolor="#ffffff" bordercolor="#666666" borderopacity="1.0" inkscape:pageshadow="2" inkscape:pageopacity="0.0" inkscape:pagecheckerboard="0" showgrid="false" inkscape:zoom="0.70642173" inkscape:cx="-122.4481" inkscape:cy="163.50007" inkscape:window-width="2215" inkscape:window-height="1081" inkscape:window-x="61" inkscape:window-y="25" inkscape:window-maximized="0" inkscape:current-layer="svg29" />
  <path fill="#fa9a9b" d="m 82,98 -9,3 c -7,4 -17,10 -21,18 -5,12 2,34 16,38 0,-14 4,-28 8,-41 2,-6 6,-12 6,-18 z" id="path9" />
  <path fill="#fa9a9b" d="m 65,81 -6,1 c -13,3 -24,23 -18,36 6,-2 11,-8 16,-11 C 69,100 82,94 95,90 93,87 88,86 84,85 79,83 72,81 65,81 Z" id="path11" />
  <path fill="#f53737" d="m 81,59 c -7,0 -14,2 -20,6 -2,2 -6,4 -6,7 l 3,2 10,3 c 10,3 19,6 28,11 5,3 10,7 15,8 -2,-13 -9,-32 -24,-36 z" id="path13" />
  <path fill="#f53737" d="m 102,53 -4,1 9,21 c 4,12 7,25 9,37 4,-2 7,-8 9,-12 3,-7 7,-15 6,-22 -2,-13 -16,-25 -29,-25 z" id="path15" />
  <path fill="#f53737" d="m 140,77 c -2,0 -2,2 -2,3 a 155,155 0 0 1 -20,34 l -11,14 c 13,0 32,-2 38,-15 5,-9 5,-20 1,-28 -1,-3 -3,-8 -6,-8 z" id="path17" />
  <path fill="#f53737" d="m 151,126 c -20,6 -42,3 -61,1 1,4 5,8 8,11 10,10 21,17 35,11 6,-3 12,-8 16,-15 1,-2 3,-5 2,-8 z" id="path19" />
  <path fill="#7f201e" d="M 101,18 H 93 A 90,90 0 0 0 26,57 C 16,71 11,88 9,105 c -2,20 8,40 18,57 15,25 36,48 55,70 l 13,15 c 1,1 3,5 5,5 2,0 5,-5 7,-7 l 14,-17 c 2,-2 6,-5 6,-8 0,-2 -5,-4 -6,-5 -6,5 -10,13 -17,16 -8,2 -14,-3 -18,-7 C 76,214 67,202 58,191 47,176 35,162 27,145 17,122 16,92 32,71 38,63 47,57 56,52 a 86,86 0 0 1 112,21 c 14,20 16,53 3,74 a 58,58 0 0 1 -19,18 c -17,10 -31,-2 -43,-13 -12,-11 -23,-22 -31,-35 -3,4 -2,15 -2,21 0,10 0,21 6,29 5,7 13,10 21,12 16,5 38,13 53,1 9,-6 14,-16 20,-25 21,-37 16,-85 -16,-114 A 94,94 0 0 0 101,18 Z" id="path21" />
  <text x="190" y="134" fill="#f53737" font-size="130px" font-weight="700" id="text23">photo-cli</text>
  <text x="180" y="210" fill="#fa9a9b" font-size="35px" font-style="italic" font-weight="400" id="text25">A photo organizer for your file system</text>
  <text x="130" y="245" fill="#fa9a9b" font-size="35px" font-style="italic" font-weight="400" id="text27">without sticking to any application or vendor</text>
</svg>
